<svg id="图层_1" data-name="图层 1" xmlns="http://www.w3.org/2000/svg"
  xmlns:xlink="http://www.w3.org/1999/xlink" viewBox="0 0 814.63 543.05">
  <defs>
    <style>
      .cls-1{fill:url(#未命名的渐变_7);}.cls-2{fill:#36f;}.cls-3{fill:#f44d2c;}.cls-4{fill:url(#未命名的渐变_7-2);}.cls-5{fill:url(#未命名的渐变_7-3);}.cls-6{fill:url(#未命名的渐变_7-4);}</style>
    <linearGradient id="未命名的渐变_7" x1="151.42" y1="157.14" x2="627.55" y2="157.14"
      gradientUnits="userSpaceOnUse">
      <stop offset="0" stop-color="#63e9aa" />
      <stop offset="1" stop-color="#1aa2e9" />
    </linearGradient>
    <linearGradient id="未命名的渐变_7-2" x1="264.91" y1="326.91" x2="436.18" y2="326.91"
      xlink:href="#未命名的渐变_7" />
    <linearGradient id="未命名的渐变_7-3" x1="348.85" y1="247.31" x2="520.12" y2="247.31"
      xlink:href="#未命名的渐变_7" />
    <linearGradient id="未命名的渐变_7-4" x1="496.27" y1="372.81" x2="496.67" y2="372.81"
      xlink:href="#未命名的渐变_7" />
  </defs>
  <path class="cls-1"
    d="M562.1,127.17c-20.46-5.23-26.71-12.92-29.76-33.6C525,44,483.58,7.3,436,2.92,385-1.8,339.9,24.86,320.28,72.32c-3.85,9.33-6.76,10-15.67,5.42-19.51-9.95-54.89-6-70.51,19.78-9.28,15.37-9,26.61-9,26.61S212,128,205.91,130.87a95.28,95.28,0,0,0-54.49,85.94c0,45,30.73,82.85,74.72,93.35,0,0,14.09.07,27.54.1-9.77-53.46,10.29-90,11.29-91.78l6.73-11.94,54.82,30L322,247.94c-.07.16-7.93,20.69-5.6,44.31a77.53,77.53,0,0,0,4,18.26l27.84.16L395,311l30.92.2,13.93.1,27.19.18a104.75,104.75,0,0,0,1.59-29.5c-2.31-23.35-13.67-41.56-33.92-54.36v17.22L320.39,194.6l109-74.42,1.55,34.55c22.21,6.55,72,26.47,91.54,77.66A170.26,170.26,0,0,1,534,290c.09,3.4,0,6.68-.1,9.86-.18,4.21-.53,8.21-1,12,7.59-.19,13-.42,15.71-.74,43.83-5.19,76.13-44,78.75-85.83C630.18,179.39,604.84,138.09,562.1,127.17ZM238.94,295.07c0,6.11-3.5,5.07-7.29,4.22-38-8.66-71.37-41.82-69.89-79.21.14-3.57-1.13-8,5.23-7.15,4.42.57,8.45-.58,9,6.85,2.77,35.89,22.23,58.15,57.48,65.48C241.09,286.84,238.91,290.84,238.94,295.07ZM439.2,18.64l-.28.85c-.05.09-.07.21-.12.3a2.16,2.16,0,0,1-.16.47c-.05.13-.09.3-.16.46a6.16,6.16,0,0,1-.33.74,2.94,2.94,0,0,1-.23.51,9.7,9.7,0,0,1-.74,1.34c-.09.14-.21.26-.28.39s-.2.26-.3.37a4.73,4.73,0,0,1-.37.4,1.7,1.7,0,0,1-.3.3,2.84,2.84,0,0,1-.25.23,1.41,1.41,0,0,1-.23.18,3.27,3.27,0,0,1-.65.42l-.21.14-.21.09-.23.1a2.12,2.12,0,0,0-.21.11,8.83,8.83,0,0,1-1.5.42,4.5,4.5,0,0,1-.56.07l-.64.07h-1.16a11,11,0,0,1-1.9-.26,3.54,3.54,0,0,1-.79-.21.85.85,0,0,1-.34-.14,1.31,1.31,0,0,1-.26-.09.94.94,0,0,1-.18-.11l-.35-.17-.28-.2a2.76,2.76,0,0,1-.25-.21,1.56,1.56,0,0,1-.28-.23l-.21-.21a1,1,0,0,0-.16-.21,2.67,2.67,0,0,1-.3-.49,3.22,3.22,0,0,1-.39-.88s-.05,0-.05,0a2.83,2.83,0,0,0-.14-.44c0-.16-.07-.3-.09-.46a6.61,6.61,0,0,1-.14-1,3.91,3.91,0,0,1-.05-.48c0-.14,0-.26,0-.4v-.48c0-.83,0-1.71,0-2.59a9.16,9.16,0,0,1,.05-.93c0-.21,0-.39,0-.6a2.74,2.74,0,0,0,.05-.28,3.13,3.13,0,0,1,.14-.69.34.34,0,0,1,0-.14,4.84,4.84,0,0,1,.14-.51,2.56,2.56,0,0,1,.16-.49,2.45,2.45,0,0,1,.19-.46,4,4,0,0,1,.67-1,.41.41,0,0,1,.16-.16,1.49,1.49,0,0,1,.28-.23,2.36,2.36,0,0,1,.34-.24,2.49,2.49,0,0,1,.33-.16,1.79,1.79,0,0,1,.37-.11,3.35,3.35,0,0,1,1.25-.12,1,1,0,0,1,.23,0h.07a1.77,1.77,0,0,1,.32.05l.21,0a1,1,0,0,0,.28.07c.3.07.62.19,1,.3a4.57,4.57,0,0,0,.65.24c.28.06.58.13.88.18a2.34,2.34,0,0,0,.58.14c.25.07.51.11.76.16l1,.21.09,0a4.7,4.7,0,0,1,.51.12c.21,0,.39.11.6.16l.72.23.42.19a4.9,4.9,0,0,1,.85.44l.37.27.35.33.11.11a2.7,2.7,0,0,1,.35.44c.07.12.14.21.21.35s.12.23.19.37a.28.28,0,0,0,0,.12c.05.09.05.18.09.27s.07.26.1.4a6.5,6.5,0,0,1,.14.9C439.22,17.76,439.22,18.17,439.2,18.64Zm23.21,7.1c-.07.23-.19.49-.28.72-.21.51-.42,1-.65,1.41a2.54,2.54,0,0,1-.32.55s-.05.1-.07.14a5.25,5.25,0,0,1-.33.49,7.19,7.19,0,0,1-.65.79c-.09.09-.2.2-.32.3a2.44,2.44,0,0,1-.37.32c-.18.14-.39.28-.6.42a6.86,6.86,0,0,1-1.48.62c-.12.05-.28.07-.42.12a6.06,6.06,0,0,1-.9.14,7.72,7.72,0,0,1-1,.07,13.61,13.61,0,0,1-2.38-.14,3.17,3.17,0,0,1-.46-.07h-.07c-.14-.05-.28-.07-.4-.12a2.45,2.45,0,0,1-.43-.11,1.17,1.17,0,0,1-.26-.1,2.09,2.09,0,0,1-.44-.16,3.68,3.68,0,0,1-.76-.41c-.14-.1-.23-.19-.35-.28a.38.38,0,0,1-.12-.09A1.89,1.89,0,0,1,449,30a3.45,3.45,0,0,1-.23-.28,2.8,2.8,0,0,1-.33-.49c0-.06-.09-.18-.14-.27a3,3,0,0,1-.25-.58c-.07-.21-.14-.44-.19-.65a8.61,8.61,0,0,1-.18-1.41v-1c0-.58.07-1.21.09-1.81.05-.34.07-.71.14-1.06v0a5.54,5.54,0,0,1,.12-.69c0-.16.06-.35.09-.51a2.55,2.55,0,0,1,.07-.32,4.7,4.7,0,0,1,.16-.49c.07-.21.14-.41.23-.62a2.26,2.26,0,0,1,.28-.56,3.23,3.23,0,0,1,.35-.53,3.08,3.08,0,0,1,.37-.44c.07-.07.11-.12.16-.16a1.54,1.54,0,0,0,.18-.16l.37-.24a3.06,3.06,0,0,1,.58-.27.41.41,0,0,1,.23-.07.37.37,0,0,1,.23-.07,1.67,1.67,0,0,1,.4-.09,1.6,1.6,0,0,1,.21-.05,7.29,7.29,0,0,1,1.48,0l1.43.14a6.58,6.58,0,0,1,.74.07,14.38,14.38,0,0,1,3.06.58L459,18a5.92,5.92,0,0,1,1.34.65l.18.11.47.35h0c.14.12.28.23.42.37l.27.33.26.3.23.37c0,.07.07.14.12.21s.09.16.14.23l.13.3c.07.21.17.41.24.65a8.2,8.2,0,0,1,.27,1.11l.07.41C462.94,24.19,462.68,25,462.41,25.74Zm61.92,77.71c0,.46,0,1,0,1.43,0,.74,0,1.48,0,2.22,0,.3,0,.63,0,.93v.16c0,.32-.07.6-.11.9,0,.14,0,.28-.07.44a6.17,6.17,0,0,1-.17.65,2.81,2.81,0,0,1-.23.58,3.53,3.53,0,0,1-.46.83.6.6,0,0,1-.16.26,4.78,4.78,0,0,1-.44.46h0a2.47,2.47,0,0,1-.5.39,2.59,2.59,0,0,1-.31.19,1.91,1.91,0,0,1-.32.16,2.13,2.13,0,0,1-.35.14c-.25.09-.51.18-.78.25s-.6.12-.93.17a8.22,8.22,0,0,1-1,.09h-.58c-.51,0-1,0-1.5-.07-.23,0-.47-.07-.67-.09l-.63-.14c-.21-.07-.42-.12-.6-.19l-.53-.21a7,7,0,0,1-1.81-1.13,3.8,3.8,0,0,1-.34-.35,2.26,2.26,0,0,1-.37-.46.77.77,0,0,1-.17-.19,3.34,3.34,0,0,1-.32-.48c-.07-.12-.16-.26-.21-.37a1.83,1.83,0,0,1-.14-.28,11.2,11.2,0,0,1-.83-2.27c-.05-.18-.07-.37-.12-.53-.14-.72-.25-1.46-.34-2.17a4.05,4.05,0,0,0-.07-.7c0-.21,0-.44-.05-.65-.05-.44-.09-.85-.12-1.27l-.06-.62c0-.67-.14-1.32-.21-2-.05-.19-.05-.37-.1-.56,0-.51-.11-1-.18-1.48-.09-.65-.21-1.32-.35-2s-.23-1.29-.37-1.94-.25-1.27-.41-1.92-.26-1.09-.4-1.62a2.74,2.74,0,0,0-.14-.53c-.14-.56-.27-1.09-.44-1.6s-.34-1.25-.55-1.85-.33-1-.51-1.58a1,1,0,0,0-.05-.11c-.18-.56-.39-1.11-.6-1.67s-.35-1-.53-1.46a10.8,10.8,0,0,0-.42-1c-.18-.44-.34-.91-.55-1.35s-.4-.87-.6-1.34c-.1-.23-.24-.48-.35-.72a14.17,14.17,0,0,0-.72-1.52c-.46-1-.95-1.9-1.46-2.85l-.55-1c-.09-.17-.16-.3-.28-.49l-.44-.76c-.46-.79-.93-1.55-1.41-2.34-.23-.35-.44-.72-.67-1.06-.42-.63-.84-1.28-1.3-1.9-.21-.3-.41-.6-.6-.91-.35-.46-.67-.94-1-1.41-.76-1-1.53-2-2.31-3-.51-.62-1-1.22-1.53-1.85s-.79-.95-1.2-1.41c-.19-.21-.35-.42-.56-.63-.39-.48-.83-.94-1.25-1.41-.6-.67-1.2-1.32-1.83-2-.46-.46-.9-.92-1.36-1.41s-.93-.92-1.41-1.39l-1.41-1.36c-2.83-2.71-6.48-4.52-9.35-7.18-.17-.14-.33-.3-.47-.44s-.27-.3-.39-.44a1.21,1.21,0,0,1-.18-.23l-.19-.23c-.14-.18-.25-.37-.37-.55a1.64,1.64,0,0,1-.16-.28l-.14-.28a1.39,1.39,0,0,1-.12-.28l-.11-.27a3.92,3.92,0,0,1-.16-.56c0-.12-.05-.23-.07-.32a1.26,1.26,0,0,1-.05-.33,4.88,4.88,0,0,1,.05-1.66.53.53,0,0,1,0-.19,5,5,0,0,1,.12-.53.48.48,0,0,1,.07-.16,3.8,3.8,0,0,1,.18-.54,13,13,0,0,1,.72-1.38v0c.16-.21.32-.46.49-.67a10.45,10.45,0,0,1,.83-1.06A4.33,4.33,0,0,1,472,30l.44-.44c.3-.28.58-.53.88-.76a5.21,5.21,0,0,1,.6-.4,4.18,4.18,0,0,1,.58-.32,4.12,4.12,0,0,1,1.48-.39,2.4,2.4,0,0,1,.46-.05,8.4,8.4,0,0,1,4.1,1.39c1,.58,2,1.23,3.08,1.92l1,.72h0c.24.16.47.34.72.51s.53.41.81.62.74.56,1.11.88.74.58,1.11.9.74.6,1.11.95c.17.12.33.28.47.4a6.1,6.1,0,0,1,.46.41l.83.77.81.74c.7.67,1.41,1.36,2.11,2.08l.76.76c.28.28.56.58.83.88s.54.58.81.9.65.7.95,1.07c.65.69,1.3,1.43,1.9,2.17.46.54.9,1.09,1.37,1.65s.92,1.18,1.41,1.78.85,1.11,1.27,1.69.95,1.29,1.44,2,.87,1.25,1.31,1.9.79,1.16,1.18,1.74c.17.25.35.51.49.74.51.76,1,1.55,1.48,2.34,1.76,2.82,3.43,5.73,4.93,8.67.46.91.9,1.81,1.34,2.71.21.42.42.86.63,1.27.44,1,.88,1.95,1.29,2.9.23.55.47,1.08.67,1.62a3.38,3.38,0,0,1,.24.51l.2.53c.19.46.35.9.54,1.36.34.91.69,1.81,1,2.71.16.46.33.9.49,1.37.51,1.52,1,3,1.36,4.53l.28,1c.32,1.34.65,2.63.9,4,.14.65.26,1.28.37,1.92,0,.28.1.61.14.88s.07.49.09.72.12.69.14,1c.1.69.14,1.34.21,2,0,.35,0,.67.07,1s0,.56,0,.81,0,.54,0,.77,0,.71,0,1.06S524.33,103.24,524.33,103.45Zm78.35,167.67c-11.08,16.3-29.45,28.65-47.25,30.76-4.58.55-8.93,2.29-11.64-.46a8.19,8.19,0,0,1-1.87-3.71c-.79-3-.37-4.83.76-6.11,1.53-1.73,4.35-2.43,7-3.4,15-5.46,29.14-12.24,38.18-26.56,3.57-5.7,8.91-7.2,14.58-2.76C606.67,262.22,604.91,267.88,602.68,271.12Zm5.1-21.29c-3.85-.06-8.52-1.5-8.66-6.24-.14-4.38,1.83-8.57,7.17-9,4.77.3,7.76,2.36,7.9,7.15C614.32,246.13,612.61,249.93,607.78,249.83Zm8-21.72c-3.84-.07-8.51-1.51-8.65-6.25-.12-4.35,1.83-8.56,7.17-9,4.79.3,7.78,2.36,7.92,7.17C622.35,224.43,620.62,228.2,615.78,228.11Z"
    transform="translate(0 -2.39)" />
  <rect class="cls-2" x="421.63" y="280.85" width="16.52" height="16.55" rx="8.26" />
  <rect class="cls-2" x="395.6" y="280.85" width="16.57" height="16.55" rx="8.26" />
  <rect class="cls-2" x="341.57" y="280.85" width="16.55" height="16.55" rx="8.26" />
  <rect class="cls-3" x="368.6" y="280.85" width="16.52" height="16.55" rx="8.26" />
  <path class="cls-4"
    d="M364.22,350.65V369c-91-35.39-55.09-126.13-55.09-126.13l-32.07-17.55S250.75,272,275.55,336.9c22.48,58.84,92,71.67,92,71.67l.91,20,67.75-46.28ZM280.49,297h14.15v14.13H280.49Zm2.23,23.06,13.86-2.2,3,11.37-13.19,4.5Zm49.77,63.45s-29.53-18.92-41-41.6l11.24-5.61s9.35,21.84,35.35,34.31Z"
    transform="translate(0 -2.39)" />
  <path class="cls-5"
    d="M509.47,237.32c-22.47-58.83-92-71.66-92-71.66l-.9-20L348.85,192l72,31.63V205.27c91,35.38,55.1,126.14,55.1,126.14L508,349S534.29,302.27,509.47,237.32Zm-60.89-29,5.62-12.9s29.53,18.94,41,41.6l-11.23,5.62S474.59,220.76,448.58,208.29Zm38.55,41.38,13.19-4.49L504,258.85,490.11,261ZM506.2,281.9H492.05V267.77H506.2Z"
    transform="translate(0 -2.39)" />
  <path class="cls-6" d="M496.27,372.38a4.57,4.57,0,0,0,.4.87A4,4,0,0,1,496.27,372.38Z"
    transform="translate(0 -2.39)" />
  <path class="cls-6" d="M496.27,372.38a4.57,4.57,0,0,0,.4.87A4,4,0,0,1,496.27,372.38Z"
    transform="translate(0 -2.39)" />
  <path class="cls-2"
    d="M0,446.37H82.07V488H40.21l-7.32-9.81v27.36H83.73l-3.45,13H0Zm53.75,13H32.89v15.48H53.75Z"
    transform="translate(0 -2.39)" />
  <path class="cls-2"
    d="M175.89,505.23h9.39L180,518.5H142V486.58H122v18.65h20l-5.81,13.27h-43v-45H142v-14H95.2L92,446.37h83.87Z"
    transform="translate(0 -2.39)" />
  <polygon class="cls-2"
    points="224.66 458.63 239.07 458.63 239.07 443.99 196.89 443.99 196.89 487.51 238.34 487.51 238.34 501.47 193.57 501.47 201.03 516.11 266.52 516.11 266.52 472.04 224.66 472.04 224.66 458.63" />
  <rect class="cls-3" x="249.41" y="443.99" width="17.11" height="14.65" />
  <path class="cls-2"
    d="M304.52,446.24v10.91l17.55,29.43,17.41-29.43V446.24h31.36v14.64l-51.4,84.56H287.53L281.72,533h10.09l14.37-22.25-31.37-49.88V446.24Z"
    transform="translate(0 -2.39)" />
  <path class="cls-2" d="M410.22,518.5V446.37h49.6l7.88,13.13H443.93v59Z"
    transform="translate(0 -2.39)" />
  <path class="cls-2"
    d="M476,446.37h82.08V488H516.19l-7.32-9.81v27.36h50.84l-3.45,13H476Zm53.75,13H508.87v15.48h20.86Z"
    transform="translate(0 -2.39)" />
  <path class="cls-2"
    d="M639.85,464.61h-20v40.62H637.5l-4,13.27H586.24V464.61H568V451.49h18.24V431h33.58v20.45h24.73Z"
    transform="translate(0 -2.39)" />
  <path class="cls-2" d="M652.84,518.5V446.37h49.6l7.88,13.13H686.55v59Z"
    transform="translate(0 -2.39)" />
  <path class="cls-2"
    d="M748.31,446.24v10.91l17.55,29.43,17.41-29.43V446.24h31.36v14.64l-51.39,84.56H731.32L725.52,533H735.6L750,510.76l-31.36-49.88V446.24Z"
    transform="translate(0 -2.39)" />
</svg>
